<?xml version="1.0" encoding="utf-8"?>
<!-- Generator: Adobe Illustrator 18.0.0, SVG Export Plug-In . SVG Version: 6.00 Build 0)  -->
<!DOCTYPE svg PUBLIC "-//W3C//DTD SVG 1.1//EN" "http://www.w3.org/Graphics/SVG/1.1/DTD/svg11.dtd">
<svg version="1.1" id="Layer_1" xmlns="http://www.w3.org/2000/svg" xmlns:xlink="http://www.w3.org/1999/xlink" x="0px" y="0px"
	 viewBox="0 0 1700 1400" enable-background="new 0 0 1700 1400" xml:space="preserve">
<g>
	<rect fill="#FFFFFF" width="1700" height="1400"/>
	<g>
		<g>
			<g>
				<path fill="#87cefa" d="M1443.7,326.9h23.6c18.2,0,33-14.8,33-33v0c0-18.2-14.8-33-33-33h-23.6c-18.2,0-33,14.8-33,33v0
					C1410.7,312.1,1425.5,326.9,1443.7,326.9z"/>
				<path fill="#87cefa" d="M288,326.9h66.2c18.2,0,33-14.8,33-33v0c0-18.2-14.8-33-33-33H288c-18.2,0-33,14.8-33,33v0
					C255,312.1,269.8,326.9,288,326.9z"/>
				<path fill="#87cefa" d="M1524.4,788.9h-309c-0.8,0.1-1.6,0.1-2.3,0.1h-79.6c-18.2,0-33-14.8-33-33v0c0-18.2,14.8-33,33-33h19.1
					c-0.8-0.1-1.6-0.1-2.3-0.1h358.2c18.2,0,33-14.8,33-33v0c0-18.2-14.8-33-33-33h-356.7c-2.4,0.6-4.9,0.9-7.5,0.9h-79.6
					c-18.2,0-33-14.8-33-33v0c0-18.2,14.8-33,33-33h63.8c-2.4-0.6-4.9-0.9-7.5-0.9h193.3c18.2,0,33-14.8,33-33v0
					c0-18.2-14.8-33-33-33h-159.3h-51.3h-16c-18.2,0-33-14.8-33-33v0c0-18.2,14.8-33,33-33h16h51.3h340.3c18.2,0,33-14.8,33-33v0
					c0-18.2-14.8-33-33-33h-294.2h-50.9h-16.4c-18.2,0-33-14.8-33-33v0c0-18.2,14.8-33,33-33h16.4h50.9h135.4c18.2,0,33-14.8,33-33
					v0c0-18.2-14.8-33-33-33h-895c-18.2,0-33,14.8-33,33v0c0,18.2,14.8,33,33,33h88.9h38.5h28.7c18.2,0,33,14.8,33,33v0
					c0,18.2-14.8,33-33,33h-28.7h-38.5H223.9c-18.2,0-33,14.8-33,33v0c0,18.2,14.8,33,33,33h221.9h33.4h186.2c18.2,0,33,14.8,33,33
					v0c0,18.2-14.8,33-33,33H479.2h-33.4h-22.3c-18.2,0-33,14.8-33,33v0c0,18.2,14.8,33,33,33h116.2c-2.6,0-5.1,0.3-7.5,0.9h57.1
					c18.2,0,33,14.8,33,33v0c0,18.2-14.8,33-33,33h-67.3c-2.6,0-5.1-0.3-7.5-0.9H315.8c-18.2,0-33,14.8-33,33v0
					c0,18.2,14.8,33,33,33h178.8c-0.8,0-1.6,0-2.3,0.1h9.1c18.2,0,33,14.8,33,33v0c0,18.2-14.8,33-33,33h-79.6c-0.8,0-1.6,0-2.3-0.1
					h-79.6c-18.2,0-33,14.8-33,33v0c0,18.2,14.8,33,33,33h192.1h37h42.6c18.2,0,33,14.8,33,33v0c0,18.2-14.8,33-33,33h-42.6h-37
					h-77.6c-18.2,0-33,14.8-33,33v0c0,18.2,14.8,33,33,33h23.7h45h34.6c18.2,0,33,14.8,33,33v0c0,18.2-14.8,33-33,33h-34.6h-45
					H327.8c-18.2,0-33,14.8-33,33l0,0c0,18.2,14.8,33,33,33h1063.6c18.2,0,33-14.8,33-33l0,0c0-18.2-14.8-33-33-33h-96h-21.2h-161.6
					c-18.2,0-33-14.8-33-33v0c0-18.2,14.8-33,33-33h161.6h21.2h154.2c18.2,0,33-14.8,33-33v0c0-18.2-14.8-33-33-33h-93.4h-27.8
					h-51.8c-18.2,0-33-14.8-33-33v0c0-18.2,14.8-33,33-33h51.8h27.8h168.3c18.2,0,33-14.8,33-33v0
					C1557.4,803.7,1542.6,788.9,1524.4,788.9z"/>
			</g>
			<path fill="#87cefa" d="M173.5,591.2h66.2c18.2,0,33-14.8,33-33l0,0c0-18.2-14.8-33-33-33h-66.2c-18.2,0-33,14.8-33,33l0,0
				C140.5,576.4,155.2,591.2,173.5,591.2z"/>
			<path fill="#87cefa" d="M159.8,851.4h66.2c18.2,0,33-14.8,33-33v0c0-18.2-14.8-33-33-33h-66.2c-18.2,0-33,14.8-33,33v0
				C126.8,836.7,141.5,851.4,159.8,851.4z"/>
			<path fill="#87cefa" d="M1422.4,591.2h117.8c18.2,0,33-14.8,33-33l0,0c0-18.2-14.8-33-33-33h-117.8c-18.2,0-33,14.8-33,33l0,0
				C1389.4,576.4,1404.2,591.2,1422.4,591.2z"/>
		</g>
		<path fill="#FFBC00" d="M538.8,481.7c2,0.9,4,1.9,6,2.8c0.5-50.1,1-100.1,1.6-150.2c0.4-39.5,0.8-79,1.2-118.5
			c0.1-13.6,0.2-27.4-3.6-40.2c-3.9-12.8-14.2-24-25.8-24.7c-11.4-0.8-21.7,9.5-26.3,21.7c-4.6,12.2-4.7,26-4.4,39.4
			c1.1,45.7,6.1,91.3,14.9,135.8c9.2,46.4,22.6,92.5,29,139.2C532.8,484.2,535.5,482.1,538.8,481.7z"/>
		<path fill="#34385F" d="M545.5,536.6c11.4,3.6,21.6,12.9,33.6,11.9c4.1-0.3,7.9-1.9,11.6-4c-6.1-4.9-11.6-10.1-14.3-17
			c-1.7-4.4-1-9.2-0.7-13.9c0.4-4.7,0.3-9.7-2.3-13.6c-2.2-3.1-5.8-4.9-9.3-6.6c-6.2-2.9-12.8-5.9-19.2-8.9c-2-0.9-4.1-1.9-6-2.8
			c-3.2,0.4-5.9,2.5-7.4,5.3c-0.7,1.4-1.1,3.1-1.1,4.8c-9.3,3-17.6,9-23.5,16.8c1.4,11.5,3.2,23,4.9,34.5
			C521.2,535.8,534.1,533,545.5,536.6z"/>
		<path fill="#12184D" d="M529.1,547.3c6.2-1.7,12.7,0,18.9,1.6c12.5,3.3,26,6.9,38.5,10.2c0.1,0,0.2-0.1,0.3-0.1
			c4.7-2.1,9.4-4.3,14-6.5c-3.3-2.7-6.9-5.4-10.3-8.1c-3.6,2.1-7.4,3.7-11.6,4c-12,1-22.1-8.3-33.6-11.9
			c-11.4-3.6-24.2-0.8-33.7,6.4c0.8,5.1,1.5,10.2,2.1,15.3C518.3,553.6,523,549,529.1,547.3z"/>
		<path fill="#823BE9" d="M648.2,596.8c-1.6-6.2-4.4-12.2-8.3-17.3c-6,2.4-12.1,4.8-18.1,7.1c-8.2,3.2-16.3,6.4-24.5,9.5
			c0,0-0.1,0-0.1,0c-0.7,2.9-1.8,5.8-3.2,8.4c0.6,0.4,1.1,0.9,1.7,1.3C612.8,600.8,630.5,597.8,648.2,596.8z"/>
		<path fill="#9A6FF2" d="M644,627.6c2.1-1,3.2-3.4,3.8-5.7c2.5-8.1,2.5-16.9,0.4-25.2c-17.8,1-35.5,4.1-52.5,9.1
			c11.6,8.8,24.6,15.6,38.4,20.3c1.2,0.4,2.3,0.8,3.5,1.1C639.7,627.9,642,628.5,644,627.6z"/>
		<path fill="#34385F" d="M579.5,1083.2c-10.5,1-21.2-5.1-25.7-14.6c-4.6-9.5-2.6-21.6,4.6-29.2c3.8-4,8.7-6.6,13.7-8.8
			c-13.6-0.5-26.3,7.5-37.8,15.2c-9.3,6.2-19.2,13.3-22.3,24.1c-2,7-0.7,14.5-1.8,21.7c-1.7,11.1-8.8,20.6-13.7,30.7
			c-6,12.5-8.8,26.6-8,40.4c0.7,11.8,4.8,24.5,14.9,30.5c9.8,5.8,22.9,3.4,32.1-3.4c9.2-6.8,15-17.1,19.4-27.6s7.6-21.5,12.9-31.6
			c7.3-13.9,18.2-25.5,25.9-39.1c2.8-5,5.2-10.5,6.7-16.2c-0.7,0.3-1.4,0.7-2.1,1C592.3,1079.4,586.1,1082.6,579.5,1083.2z"/>
		<path fill="#E74F61" d="M701.1,483.8c2.7-0.9,5.4-1.6,8.1-2.3c-5-8.2-9-16.9-11.6-26.3c-3.5-13-1.2-27.1,4.2-41.6
			c-7.9,12.8-21.2,23-28.3,36.6c-5.7,10.8-7.1,23.3-8.5,35.4c-0.8,7.1-1.6,14.2-2.4,21.3c3.6-2.5,7.3-5,10.9-7.6
			C682.2,493.3,691.1,487.2,701.1,483.8z"/>
		<path fill="#B92C49" d="M703.9,564.2c-2.8,0.4-5.7,1.1-8.4,1.8c10.1,2.9,20.2,5.8,30.4,8.7c0.3,0.1,0.6,0.2,0.9,0.3
			c6.6,1.9,13.1-3.1,13.1-9.9c0-6.6,0-13.2,0-19.8C728.9,553.6,717.5,562,703.9,564.2z"/>
		<path fill="#9A6FF2" d="M764.5,389.1c11.9,6.4,25.3,11.1,38.8,10c6.2-0.5,12.4-2.4,17.7-5.6c1.8-2,3.6-4.1,5.4-6.1
			c3-3.5,5.9-7.1,9-10.6c3.5-10.1,1.3-21.4-1.3-31.8c-1.5-5.9-3-11.8-4.7-17.6l-35.1,22.4c-14.7,9.3-33.2,10.2-48.6,2.2l-39.1-22.5
			l1-0.5c-0.7-0.1-1.4-0.2-2-0.4c6.2,12.2,14.2,23.5,23.7,33.4C739.4,372.8,751.4,382,764.5,389.1z"/>
		<path fill="#12184D" d="M811.9,280.5c-2.3,7.6-9.8,15.7-15.3,21.2c-12.3,12.4-28.3,20.6-45.2,24.6c-8.4,2-17.1,3-25.7,3
			c-2.9,0-12,0.4-18.1-0.4l-1,0.5l39.1,22.5c15.4,8,34,7.2,48.6-2.2l35.1-22.4l1.7-1.1l10-6.3c9.2-5.9,9.1-19.4-0.2-25l-28.3-20.4
			l-0.1,0.1c0.1,0.7,0.1,1.3,0.1,2C812.4,277.9,812.3,279.2,811.9,280.5z"/>
		<path fill="#34385F" d="M725.6,329.3c8.6,0,17.3-1,25.7-3c16.9-4,32.9-12.2,45.2-24.6c5.5-5.5,13-13.6,15.3-21.2
			c0.4-1.3,0.6-2.6,0.6-4c0-0.7,0-1.3-0.1-2c-0.6-6-4-12.3-6.9-17.2c-9.3-15.5-25.2-27.2-43.1-30.4c-24.7-4.4-51.5,7.8-64.5,29.3
			c-13,21.5-11.3,50.9,4.1,70.7c0.6,0.7,1.8,1.2,3.5,1.6c0.6,0.1,1.3,0.3,2,0.4C713.6,329.8,722.7,329.4,725.6,329.3z"/>
		<path fill="#34385F" d="M597.3,596.1c8.2-3.1,16.3-6.3,24.5-9.5c-2.7-13.2-9-25.5-18.1-35.4c-0.9,0.5-1.9,0.9-2.8,1.3
			c-4.6,2.2-9.3,4.4-14,6.5c-0.1,0-0.2,0.1-0.3,0.1c-12.5-3.3-26-6.9-38.5-10.2c-6.2-1.6-12.7-3.3-18.9-1.6
			c-6.1,1.7-10.9,6.3-15.3,10.9c-0.3,0.3-0.5,0.6-0.8,0.9c-3.1,3.3-6.4,7.3-5.9,11.7c0.4,3.1,2.7,5.7,5.4,7.2c2.7,1.6,5.8,2.3,8.8,3
			c2.1,4.9,1.3,11.3,1.4,16.6c0.1,5.3,0.2,10.7,2,15.6c1.5,4,4.3,7.7,8.1,9.5c1.1-1.2,2.3-2.2,3.6-3.2c3.1-2.5,6.2-4.9,9.3-7.4
			c1-0.8,2.1-1.7,3.4-1.9c2.1-0.3,4,1,5.7,2.3c2.6,1.9,5.1,3.9,7.7,5.8c1.7,1.3,3.5,2.7,4.9,4.3c3.3-0.3,6.5-1.2,9.6-2.5
			c7.2-3.1,13.3-8.8,17-15.7c1.4-2.6,2.5-5.5,3.2-8.4C597.2,596.1,597.3,596.1,597.3,596.1z"/>
		<path fill="#9A6FF2" d="M621.8,586.6c6-2.4,12.1-4.8,18.1-7.1c11.7-4.6,23.4-9.2,35.1-13.8c-8.9-10.8-17-22.3-24.1-34.3
			c-0.9-1.5-1.7-3.1-2.4-4.8c-14.6,8.9-29.6,17.2-45,24.7C612.8,561.1,619.2,573.4,621.8,586.6z"/>
		<path fill="#E74F61" d="M821,393.6c-15.9,17.5-34.2,32.9-54.2,45.6c-3.7,2.3-7.6,4.7-9.3,9.1c-0.7,1.8-0.7,3.8,0.1,5.6
			c0.2,0.4,0.4,0.8,0.6,1.2c3.6,6.7,12.9,8.9,20.3,11.4c7.9,2.6,16.1,3.9,24.1,6c10.4,2.8,20.5,7,29.7,12.6c3,1.8,5.9,3.7,8.7,5.7
			c4,2.9,9.5,1.8,12.1-2.4c8.8-14.3,21.9-26.6,35.1-36.8c12.3-9.5,26.6-17,35.2-29.9c10.8-16.2,9.6-39.4-2.8-54.3
			c-11.5-13.9-31.1-13.4-49.3-11.4c-8.6,1-20.9,6.4-27.3,12.1c-3,2.7-5.8,5.7-8.4,8.7c-3,3.5-6,7.1-9,10.6
			C824.6,389.5,822.8,391.6,821,393.6z"/>
		<path fill="#34385F" d="M1261.4,1165c-1.6-8.7-3.1-16.7-3.8-25.8c-0.2-3.2-0.5-6.5-1.7-9.5c-1.8-4.4-5.2-7.3-9.1-9.4
			c-2.2-1.2-4.5-2.1-6.9-2.9c-5.2-1.9-8.6-4.2-13.2-7.1c-10.1-6.5-25-10.7-35.9-3.6c-0.1,0.1-0.2,0.1-0.2,0.1
			c-10,6.8-11.2,20.6-14,32.3c-2.9,12.4-8.6,24.2-16.6,34.2c-4.6,5.8-10.4,12.8-7.8,19.8c2.6,7.2,12.1,8.7,19.8,8.7
			c21.4,0.1,42.8-1.3,64.1-4.2c7-1,14.5-2.4,19.4-7.5C1261.4,1183.9,1263,1173.3,1261.4,1165z"/>
		<path fill="#FFBC00" d="M562.5,618.5c-2.6-1.9-5.1-3.9-7.7-5.8c-1.7-1.3-3.6-2.6-5.7-2.3c-1.3,0.2-2.4,1.1-3.4,1.9
			c-3.1,2.5-6.2,4.9-9.3,7.4c-1.3,1-2.5,2-3.6,3.2c-0.7,0.8-1.3,1.6-1.8,2.6c-1.8,3.7-0.6,8.2,1.9,11.4c2.6,3.2,6.4,5.1,10.2,6.4
			c6.4,2.1,13.6,2.7,19.6-0.5s9.6-10.9,6.7-17c-0.5-1.1-1.2-2.1-2-3C566,621.2,564.2,619.8,562.5,618.5z M563.2,638.5
			c-1.1,0.8-2.5,1.1-3.8,1.3c-5.5,0.9-11.2,0.1-16.2-2.3c-2.3-1.1-4.7-3-4.9-5.5c-0.2-2.1,1.3-4.1,3.2-5.1c1.9-1,4.1-1.2,6.2-1.1
			c4.9,0.2,9.8,1.7,14,4.3c1.8,1.1,3.7,2.8,3.6,5C565.3,636.5,564.4,637.7,563.2,638.5z"/>
		<path fill="#F18E00" d="M561.7,630.2c-4.2-2.6-9.1-4.1-14-4.3c-2.1-0.1-4.3,0.1-6.2,1.1c-1.9,1-3.3,3-3.2,5.1
			c0.2,2.6,2.5,4.4,4.9,5.5c5,2.4,10.7,3.3,16.2,2.3c1.3-0.2,2.7-0.6,3.8-1.3c1.1-0.8,2-2,2.1-3.4
			C565.4,633,563.5,631.3,561.7,630.2z"/>
		<g>
			<path fill="#34385F" d="M1408.7,1193.7H291.3c-5.2,0-9.5,4.2-9.5,9.5l0,0c0,5.2,4.2,9.5,9.5,9.5h84.2h37.9h42.9
				c5.2,0,9.5,4.2,9.5,9.5s-4.2,9.5-9.5,9.5h-42.9h-15.3c-5.2,0-9.5,4.2-9.5,9.5s4.2,9.5,9.5,9.5h786.7c5.2,0,9.5-4.2,9.5-9.5
				s-4.2-9.5-9.5-9.5h-218c-5.2,0-9.5-4.2-9.5-9.5s4.2-9.5,9.5-9.5h64.6h16.2h361.1c5.2,0,9.5-4.2,9.5-9.5l0,0
				C1418.2,1198,1414,1193.7,1408.7,1193.7z"/>
			<path fill="#34385F" d="M1247.8,1231.5h-30.9c-5.2,0-9.5,4.2-9.5,9.5v0c0,5.2,4.2,9.5,9.5,9.5h30.9c5.2,0,9.5-4.2,9.5-9.5v0
				C1257.3,1235.7,1253.1,1231.5,1247.8,1231.5z"/>
			<path fill="#34385F" d="M359.8,1231.5H341c-5.2,0-9.5,4.2-9.5,9.5v0c0,5.2,4.2,9.5,9.5,9.5h18.8c5.2,0,9.5-4.2,9.5-9.5v0
				C369.3,1235.7,365,1231.5,359.8,1231.5z"/>
		</g>
		<g>
			<path fill="#B92C49" d="M834.2,511.1c5.5-0.9,11.1-1.4,16.2-3.5c6.2-2.6,11.2-7.5,16-12.3c14-14,28.1-27.9,42.1-41.9
				c10-10,20.3-20.4,25.1-33.6c3.7-10.1,3.8-21.7-0.9-31.3c-1.2-2.4-2.6-4.6-4.4-6.6c4.2,13.2,2.6,28.3-5.1,39.8
				c-8.6,12.9-22.9,20.4-35.2,29.9c-13.2,10.2-26.2,22.5-35.1,36.8c-2.6,4.2-8.1,5.3-12.1,2.4c-2.8-2-5.7-4-8.7-5.7
				c-3.6,3.5-8,6.3-12.5,8.7c-8.6,4.5-17.8,7.4-26.4,11.9c-7.7,4.1-14.6,9.4-21.4,14.7c-5.8,4.5-11.6,9-17.5,13.5
				c4.3,4.7,8.4,9.6,12.2,14.7C784,528.8,808.2,515.2,834.2,511.1z"/>
			<path fill="#FF7473" d="M980.8,516.5c-11-14.3-8.5-36.4-13.5-53.8c-4.2-14.4-8.4-28.9-12.6-43.3c-5.1-17.3-10.4-35.2-21.8-49.2
				c-11.2-13.8-27.3-22.7-43.8-29.5c-18.5-7.6-38.1-12.9-58-14.4l-1.7,1.1c1.7,5.9,3.2,11.7,4.7,17.6c2.6,10.5,4.8,21.7,1.3,31.8
				c2.7-3,5.4-6,8.4-8.7c6.4-5.8,18.7-11.1,27.3-12.1c18.2-2,37.8-2.5,49.3,11.4c3.5,4.3,6.2,9.2,7.9,14.5c1.7,2,3.2,4.2,4.4,6.6
				c4.7,9.6,4.6,21.2,0.9,31.3c-4.8,13.3-15.1,23.7-25.1,33.6c-14,14-28.1,27.9-42.1,41.9c-4.8,4.8-9.8,9.7-16,12.3
				c-5.1,2.2-10.7,2.6-16.2,3.5c-25.9,4.1-50.2,17.7-67.4,37.5c6,8.2,11,16.9,14.1,26.6c3.1,9.7,4.4,20.3,10.3,28.6
				c3.8,5.5,9.1,9.3,15,12c9.7,4.4,21.3,6,32.1,7c26.1,2.6,53,10.4,78.7,5c25.7-5.4,49.6-19.1,67.2-38.5c6-6.6,11.4-14.1,13.9-22.5
				c0.8-2.5,1.3-5.1,1.5-7.8C1000.7,543.2,990.5,529.1,980.8,516.5z"/>
		</g>
		<g>
			<path fill="#B92C49" d="M821,393.6c-5.4,3.1-11.5,5.1-17.7,5.6c-13.5,1.1-26.8-3.7-38.8-10c-13.2-7-25.1-16.2-35.4-27
				c-1.3,1.5-2.5,3-3.6,4.6c5.2,7.7,10.7,15.2,17.2,21.9c9.9,10.2,22.3,18.5,36.3,21.2c10.9,2.1,22.7,0.2,32-5.6
				C814.4,400.6,817.8,397.1,821,393.6z"/>
			<path fill="#FF7473" d="M779,409.6c-14-2.6-26.4-10.9-36.3-21.2c-6.5-6.7-12-14.1-17.2-21.9c-7.8,10.6-12.4,21.9-18.3,34.3
				c-2,4.3-3.8,8.5-5.4,12.7c-5.4,14.5-7.7,28.6-4.2,41.6c2.5,9.3,6.6,18.1,11.6,26.3c6.2-1.6,12.3-3.2,17.4-7
				c4.2-3.1,7.3-7.4,11.6-10.5c4.8-3.5,10.7-5.1,16.2-7.3c1.3-0.5,2.5-1.1,3.8-1.7c-0.2-0.4-0.4-0.8-0.6-1.2
				c-0.7-1.8-0.8-3.8-0.1-5.6c1.7-4.4,5.6-6.8,9.3-9.1c15.9-10.1,30.8-21.9,44.2-35.1C801.7,409.9,789.9,411.7,779,409.6z"/>
		</g>
		<g>
			<path fill="#34385F" d="M693.7,552.3c4.7-1.7,9.9-1.7,14.7-3.1c13.8-3.9,21.9-17.8,33.4-26.4c9.4-7,21-10.4,31.5-15.5
				c15.5-7.6,28.6-19,41.2-30.8c-3.9-1.5-7.9-2.8-12-3.9c-8-2.1-16.2-3.4-24.1-6c-7.4-2.5-16.7-4.7-20.3-11.4
				c-1.2,0.6-2.5,1.2-3.8,1.7c-5.5,2.2-11.4,3.8-16.2,7.3c-4.2,3.1-7.4,7.4-11.6,10.5c-5.1,3.7-11.2,5.3-17.4,7
				c-2.7,0.7-5.5,1.4-8.1,2.3c-10,3.4-18.9,9.5-27.6,15.6c-3.6,2.5-7.3,5-10.9,7.6c-3.4,2.3-6.8,4.7-10.1,7
				c-1.3,0.9-2.6,1.8-3.5,3.1c-2,2.8-1.6,6.2-0.3,9.5c0.6,1.7,1.5,3.3,2.4,4.8c7.1,12.1,15.2,23.5,24.1,34.3
				C679.9,560.4,687,554.7,693.7,552.3z"/>
			<path fill="#12184D" d="M814.5,476.4c-12.6,11.9-25.7,23.3-41.2,30.8c-10.5,5.2-22.1,8.5-31.5,15.5
				c-11.5,8.6-19.6,22.5-33.4,26.4c-4.8,1.4-10,1.4-14.7,3.1c-6.7,2.4-13.8,8.1-18.6,13.4c-11.7,4.5-23.4,9.2-35.1,13.8
				c3.8,5,6.6,10.9,8.2,17c2.5,0.2,5.2-0.2,7.5-0.9c5.3-1.7,10.2-4.8,15.7-5.8c4.6-0.8,9.3-0.2,13.9-0.6c11-1,21-8.7,25.1-18.9
				c-5-1.4-9.9-2.8-14.9-4.3c2.8-0.8,5.6-1.4,8.4-1.8c13.6-2.1,25.1-10.6,36-19c0.3-0.2,0.5-0.4,0.8-0.6c4.6-3.6,9.3-7.1,13.9-10.7
				c5.8-4.5,11.6-9,17.5-13.5c6.9-5.3,13.8-10.6,21.4-14.7c8.5-4.5,17.8-7.5,26.4-11.9c4.5-2.3,8.8-5.2,12.5-8.7
				C826.6,481.7,820.7,478.8,814.5,476.4z"/>
			<path fill="#34385F" d="M685.3,589.1c-4.6,0.4-9.3-0.2-13.9,0.6c-5.5,1-10.4,4.1-15.7,5.8c-2.4,0.8-5,1.1-7.5,0.9
				c0,0.1,0.1,0.2,0.1,0.3c2.1,8.2,2.1,17-0.4,25.2c-0.7,2.2-1.7,4.7-3.8,5.7c-2,0.9-4.3,0.4-6.4-0.3c-1.2-0.4-2.4-0.7-3.5-1.1
				c0.6,0.6,1.2,1.2,1.8,1.7c4.3,3.4,9.9,4.7,15.2,5.9c8.9,2,17.8,3.9,26.7,5.9c3.9,0.9,7.9,1.7,11.9,1.3c4-0.4,8-2.4,9.9-5.9
				c1.5-2.9,1.4-6.3,2.3-9.5c1.8-6.5,7.4-11.1,11.8-16.3c8.1-9.5,12.4-22.1,12.2-34.5c-5.2-1.5-10.4-2.9-15.5-4.4
				C706.2,580.4,696.2,588.1,685.3,589.1z"/>
		</g>
		<g>
			<path fill="#12184D" d="M1005,582.5c-3.4-2.4-7-4.8-10.6-7.2c-2.8,5.1-6.4,9.8-10.3,14.1c-1.5,1.6-3.1,3.2-4.6,4.8
				c2.8,5.8,4.9,11.9,6.2,18.2C993.4,603.6,1000.4,593.2,1005,582.5z"/>
			<path fill="#34385F" d="M1197.7,861.9c-1.5-10.8,0.2-22.8-5.9-31.8c-4.7-6.9-13.3-10.6-17.6-17.8c-3.6-6-3.6-13.4-4.7-20.3
				c-1.6-10-5.5-19.5-9.7-28.8c-9.1-20.2-19.6-39.9-31.2-58.8c-13.8-22.4-29.3-43.9-48-62.4c2.6-6.3-3.9-14.6-10.2-17.3
				c-6.2-2.7-13.6-4.1-17.6-9.6c-2.5-3.4-3.2-7.8-5.2-11.5c-2.6-4.7-7.2-7.9-11.6-10.9c-12.6-8.7-25.3-17.3-37.9-26
				c-0.9,2.9-2.1,5.7-3.6,8.4c3.5,2.4,7.1,4.8,10.6,7.2c-4.6,10.8-11.6,21.1-19.3,29.9c-1.4-6.3-3.5-12.4-6.2-18.2
				c-4.2,4.1-8.7,8-13.4,11.5c1.4,7.5,2.7,15,4,22.5c-7.7,4.5-15.8,8.7-23.5,13.2c-1-7.5-1.9-15-2.9-22.5c-8.6,4-17.6,7-26.9,9
				c-2.6,0.5-5.2,1-7.9,1.3c1.1,7.5,1.9,15.1,3.3,22.5c-14.7,0.7-29.6-0.9-44.1-3.5c-0.8-7.1-1.5-14.2-2.3-21.4
				c-5.1-0.8-10.2-1.6-15.3-2.3c0.6,7.4,1.2,14.8,1.8,22.2c-15.5-2-30.8-5.7-45.5-11.1c0,0.2,0,0.4,0,0.5
				c-10.1,5.7-16.5,14.2-20.7,25s-5.9,22.4-7.6,33.9c-1.5,9.9-2.9,20.1-1.3,30c1.4,8.7,5.1,16.9,5.8,25.6c1,12.8-4.4,25.2-8.3,37.5
				c-7.9,24.8-9.8,51.5-5.4,77.1c1.3,7.7,3.2,15.4,3.1,23.3c-0.1,7.8-2.4,16.1-8.3,21.3c-4.5-3.3-9.9-2.4-14.9,0
				c-5.1,2.4-9,6.7-12.2,11.2c-0.5,0.7-1,1.4-1.4,2.2c-9.3,14.5-13,32.6-9.9,49.6c1.7,9.4,5.5,18.4,10.9,26.3
				c1.8-0.4,3.7-0.8,5.5-1.3c16.2-4.2,31.4-11.7,46.4-19.1c23.3-11.5,48.8-25.4,57.1-50c8.1-24.3-3.4-51.5,3-76.3
				c3.3-12.6,10.9-23.6,17-35s11-24.7,8-37.4c-2.6-10.8-10.3-19.4-16.5-28.6c-6.2-9.2-11-20.9-6.8-31.2c4.8-11.8,19.3-16.3,32-16.3
				c12.7,0,25.7,2.9,38-0.2c12.2-3,22.2-11.5,31.8-19.8c20.5-17.8,41.1-35.5,61.6-53.3c0.1-0.1,0.3-0.2,0.4-0.3
				c4.7-3.2,10.2,3.1,6.6,7.5l-47.5,58.2c-1.5,1.8-2.6,3.8-3.2,6.1c-3.2,11.5,9.4,16.1,18.2,13.4c7.3-2.2,13.2-7.5,20.2-10.5
				c7-3,16.7-2.7,20.5,3.9c-10.3,4.6-22.5,12.9-19.9,23.9c2.6,10.8,16.7,12.8,26.8,17.4c17.8,8.1,26.1,28.5,31.6,47.3
				c5.5,18.8,10.7,39.4,26.1,51.6c8.8,7.1,20.5,10.5,31.8,9.3c8.7-0.9,17.6-4.4,25.8-1.6c15.2,5.3,16.2,26.5,26.3,39.1
				c9,11.3,24.9,14,39.3,10.4c1.6-1.9,3.1-3.9,4.5-5.9C1207.7,892.7,1199.9,877.2,1197.7,861.9z"/>
			<path fill="#12184D" d="M1177.5,895.6c-10-12.6-11-33.8-26.3-39.1c-8.2-2.9-17.2,0.6-25.8,1.6c-11.3,1.2-22.9-2.2-31.8-9.3
				c-15.3-12.2-20.6-32.8-26.1-51.6c-5.5-18.8-13.8-39.2-31.6-47.3c-10.1-4.6-24.3-6.6-26.8-17.4c-2.6-11,9.6-19.2,19.9-23.9
				c-3.8-6.6-13.5-6.9-20.5-3.9c-7,3-12.9,8.3-20.2,10.5c-8.8,2.7-21.4-1.9-18.2-13.4c0.6-2.2,1.8-4.3,3.2-6.1l47.5-58.2
				c3.6-4.4-1.9-10.8-6.6-7.5c-0.1,0.1-0.3,0.2-0.4,0.3c-20.5,17.8-41.1,35.5-61.6,53.3c-9.5,8.2-19.5,16.7-31.8,19.8
				c-12.3,3.1-25.3,0.1-38,0.2c-12.7,0-27.2,4.5-32,16.3c-4.2,10.3,0.6,22,6.8,31.2c6.2,9.2,14,17.8,16.5,28.6
				c3,12.7-1.8,25.9-8,37.4s-13.8,22.4-17,35c-6.4,24.8,5.1,52-3,76.3c-8.2,24.7-33.7,38.5-57.1,50c-15,7.4-30.2,14.8-46.4,19.1
				c-1.8,0.5-3.7,0.9-5.5,1.3c3.7,5.3,8,10.2,13,14.3c1.6,1.3,3.3,2.6,5,3.8c4.7,3.2,10.6,5.9,16,4.2c6.6-2,9.9-9.3,15-13.9
				c6.9-6.3,17-7.4,25.8-10.6c14.7-5.3,26.6-16.6,35.3-29.5c8.7-12.9,14.6-27.5,20.4-42c22.3-55.7,56.9-133.7,79.2-189.4
				c71.9,28.9,127.3,95.2,145.5,170.5c2.5,10.2,4.5,21,11.6,28.7c7,7.7,17.4,10.7,28,11.1c3.4,0.1,6.7,0.1,10-0.2
				c22.4-2,44-11.2,61.2-25.6c5.1-4.3,9.9-9,14.1-14.2C1202.4,909.7,1186.5,907,1177.5,895.6z"/>
			<path fill="#12184D" d="M970.1,628.2c-1.3-7.5-2.7-15-4-22.5c-7,5.2-14.5,9.6-22.3,13.2c1,7.5,1.9,15,2.9,22.5
				C954.3,636.9,962.4,632.6,970.1,628.2z"/>
			<path fill="#12184D" d="M850.7,624.3c-4.2-0.6-8.3-1.1-12.5-1.6c-10.8-1.1-22.4-2.6-32.1-7c0.3,6.6,0.6,13.1,0.8,19.7
				c14.7,5.4,30,9.1,45.5,11.1C851.9,639.1,851.3,631.7,850.7,624.3z"/>
			<path fill="#12184D" d="M912.3,651.5c-1.4-7.4-2.2-15-3.3-22.5c-14.2,1.6-28.6-0.2-43.1-2.4c0.8,7.1,1.5,14.2,2.3,21.4
				C882.7,650.7,897.6,652.2,912.3,651.5z"/>
		</g>
		<g>
			<path fill="#FF7473" d="M580.9,1063.4c8.9,0.4,17.1-4.2,24.9-8.6c41.2-23.3,84.7-42.7,129.5-58c-4.7-7.4-8-15.6-9.6-24.3
				c-3.1-17,0.5-35.1,9.9-49.6c-28.4,4.6-53.8,23.1-75.5,42.7c-24.8,22.4-48.1,47.8-78.8,61.1c-3,1.3-6.2,2.5-9.2,3.9
				c-4.7,2.1-9.2,4.5-12.9,8c-0.1,0.9-0.1,1.9-0.1,2.9C559.6,1052.7,569.6,1062.8,580.9,1063.4z"/>
			<path fill="#E74F61" d="M735.3,996.7c-44.8,15.3-88.2,34.7-129.5,58c-7.8,4.4-16,9-24.9,8.6c-11.3-0.6-21.3-10.6-21.8-21.9
				c0-1,0-1.9,0.1-2.9c-0.3,0.3-0.6,0.5-0.8,0.8c-7.3,7.6-9.2,19.8-4.6,29.2c4.6,9.5,15.3,15.5,25.7,14.6c6.7-0.6,12.8-3.8,18.8-6.8
				c0.7-0.4,1.4-0.7,2.1-1c48.2-24.3,98.1-45.2,149.3-62.3C744,1008.4,739.2,1002.9,735.3,996.7z"/>
		</g>
		<g>
			<path fill="#E74F61" d="M1246.2,1091.3c-5.3,0.4-10.7-0.2-15.8-1.7c-13.4-4.1-24.6-14.8-29.1-28.1c-6.8-19.7,0.5-43.2-10.3-61.1
				c-3-5-7.3-9.2-10.6-14.1s-5.4-11.1-3.5-16.6c2.3-6.7,9.3-10.1,15.2-14c8.7-5.8,15.7-14,20.4-23.4c-2.9-4.3-6.2-8.4-9.7-12.2
				c-17.2,14.4-38.8,23.6-61.2,25.6c-3.3,0.3-6.6,0.4-10,0.2c2.3,19.5,9.3,38.5,20.4,54.7c8.5,12.4,19.2,23.2,26.9,36
				c8.1,13.5,12.7,29.2,13.1,44.9c0.2,8.4-0.7,16.8-0.9,25.1c10.8-7.2,25.7-2.9,35.9,3.6c4.6,2.9,8,5.3,13.2,7.1
				c2.4,0.8,4.7,1.8,6.9,2.9c1.3-9.3,0.4-18.9-0.6-28.3C1246.2,1091.8,1246.2,1091.5,1246.2,1091.3z"/>
			<path fill="#FF7473" d="M1192,955.7c-5.8,3.9-12.9,7.4-15.2,14c-1.9,5.6,0.3,11.7,3.5,16.6s7.5,9,10.6,14.1
				c10.8,17.8,3.5,41.4,10.3,61.1c4.5,13.2,15.7,24,29.1,28.1c5.1,1.6,10.5,2.1,15.8,1.7c-2.1-20-4.3-40.1-6.4-60.1
				c-2.4-22.8-4.9-45.8-12.2-67.6c-3.7-11-8.7-21.7-15.2-31.2C1207.7,941.7,1200.7,949.9,1192,955.7z"/>
		</g>
	</g>
</g>
</svg>
